<svg xmlns="http://www.w3.org/2000/svg" viewBox="0 0 885.679 1024">
  <title>github</title>
  <path d="M1010.12,129.568s-54.145-17.392-177.154,66.108c-51.471-14.363-106.639-21.524-161.414-21.76-54.814.236-109.945,7.319-161.335,21.682-123.243-83.422-177.31-66.108-177.31-66.108-35.14,88.733-12.946,154.33-6.374,170.7-41.16,45.135-66.305,102.585-66.305,173.022,0,247.04,150.553,302.367,293.668,318.657-18.379,16.055-35.064,44.544-40.924,86.1-36.674,16.527-130.09,45.016-187.621-53.516,0,0-34.079-61.938-98.809-66.423,0,0-63.037-.787-4.445,39.192,0,0,42.223,19.833,71.578,94.283,0,0,37.894,114.98,217.173,76.024.315,53.831.9,104.67.9,120.017,0,17-34.117,64.457,159.8,64.457,186.362,0,159.761-47.221,159.761-64.378,0-21.249.867-90.74.867-176.917,0-60.127-20.541-99.32-43.758-119.309,143.627-15.977,294.416-70.516,294.416-318.185,0-70.436-24.948-127.887-66.265-173.022C1023.185,283.9,1045.378,218.38,1010.12,129.568Z" transform="translate(-197.161 -128)"/>
</svg>
