<svg xmlns="http://www.w3.org/2000/svg" viewBox="0 0 950 1024">
  <title>github</title>
  <path d="M1073.01,354.61,681.99,138.76a87.311,87.311,0,0,0-83.98,0L206.99,354.61C181.01,368.95,165,395.46,165,424.15v431.7c0,28.69,16.01,55.2,41.99,69.54l391.02,215.85a87.311,87.311,0,0,0,83.98,0l391.02-215.85c25.98-14.34,41.99-40.85,41.99-69.54V424.15C1115,395.46,1098.99,368.95,1073.01,354.61ZM707.389,758.079c13.2,11.365,24.879,33.649,24.879,67.835,0,49-.493,88.509-.493,100.59,0,9.755,15.125,36.6-90.835,36.6-110.255,0-90.857-26.983-90.857-36.648,0-8.726-.336-37.631-.515-68.238C447.636,880.37,426.09,815,426.09,815c-16.69-42.33-40.7-53.606-40.7-53.606-33.313-22.731,2.527-22.284,2.527-22.284,36.8,2.551,56.18,37.766,56.18,37.766C476.81,832.9,529.924,816.7,550.776,807.3c3.332-23.626,12.818-39.824,23.268-48.953-81.371-9.262-166.971-40.719-166.971-181.178,0-40.049,14.3-72.713,37.7-98.375-3.736-9.307-16.355-46.6,3.624-97.054,0,0,30.741-9.845,100.813,37.586a347.023,347.023,0,0,1,183.506.045c69.939-47.476,100.724-37.587,100.724-37.587,20.047,50.5,7.428,87.747,3.669,97.01,23.492,25.662,37.677,58.327,37.677,98.375C874.785,717.986,789.051,749,707.389,758.079Z" transform="translate(-165 -128)"/>
</svg>
