<svg xmlns="http://www.w3.org/2000/svg" viewBox="0 0 950 1024">
  <title>email</title>
  <path d="M1073.01,354.61,681.99,138.76a87.311,87.311,0,0,0-83.98,0L206.99,354.61C181.01,368.95,165,395.46,165,424.15v431.7c0,28.69,16.01,55.2,41.99,69.54l391.02,215.85a87.311,87.311,0,0,0,83.98,0l391.02-215.85c25.98-14.34,41.99-40.85,41.99-69.54V424.15C1115,395.46,1098.99,368.95,1073.01,354.61ZM906.667,806.667A33.431,33.431,0,0,1,873.333,840H406.667a33.431,33.431,0,0,1-33.334-33.333V573.333L606.667,695.467c16.666,8.066,24.466,11.2,33.333,11.2s16.667-3.134,33.333-11.2L906.667,573.333Zm0-308.067L640,638.767,373.333,498.6V473.333A33.431,33.431,0,0,1,406.667,440H873.333a33.431,33.431,0,0,1,33.334,33.333Z" transform="translate(-165 -128)"/>
</svg>
