<svg xmlns="http://www.w3.org/2000/svg" viewBox="0 0 1024 832.163">
  <title>twitter</title>
  <path d="M1152,322.425A418.014,418.014,0,0,1,1031.335,355.5a210.459,210.459,0,0,0,92.375-116.238A420.533,420.533,0,0,1,990.3,290.269a209.8,209.8,0,0,0-153.341-66.35c-116.009,0-210.068,94.058-210.068,210.088a210.342,210.342,0,0,0,5.446,47.871c-174.6-8.772-329.422-92.4-433.043-219.5a210.349,210.349,0,0,0,65.02,280.491,209.483,209.483,0,0,1-95.16-26.295c-.021.873-.021,1.767-.021,2.661,0,101.77,72.42,186.662,168.536,205.993a211.218,211.218,0,0,1-55.354,7.359,208.12,208.12,0,0,1-39.536-3.784c26.753,83.458,104.327,144.216,196.245,145.9A423.911,423.911,0,0,1,128,961.69a594.5,594.5,0,0,0,322.044,94.391c386.439,0,597.733-320.11,597.733-597.733q0-13.658-.582-27.21A425.5,425.5,0,0,0,1152,322.425Z" transform="translate(-128 -223.919)"/>
</svg>
