<svg xmlns="http://www.w3.org/2000/svg" viewBox="0 0 950 1024">
  <title>twitter</title>
  <path d="M1073.01,354.61,681.99,138.76a87.311,87.311,0,0,0-83.98,0L206.99,354.61C181.01,368.95,165,395.46,165,424.15v431.7c0,28.69,16.01,55.2,41.99,69.54l391.02,215.85a87.311,87.311,0,0,0,83.98,0l391.02-215.85c25.98-14.34,41.99-40.85,41.99-69.54V424.15C1115,395.46,1098.99,368.95,1073.01,354.61ZM883.428,533.781q.337,7.725.332,15.531C883.76,707.78,763.153,890.5,542.573,890.5a339.34,339.34,0,0,1-183.824-53.879,241.972,241.972,0,0,0,177.535-49.654,120.048,120.048,0,0,1-112.017-83.28,118.817,118.817,0,0,0,22.568,2.159,120.567,120.567,0,0,0,31.6-4.2,120.01,120.01,0,0,1-96.2-117.581c0-.51,0-1.021.012-1.519a119.573,119.573,0,0,0,54.318,15.009,120.067,120.067,0,0,1-37.114-160.1A340.485,340.485,0,0,0,646.628,562.744,119.979,119.979,0,0,1,850.953,453.373,240.04,240.04,0,0,0,927.1,424.256a120.129,120.129,0,0,1-52.727,66.349,238.611,238.611,0,0,0,68.876-18.877A242.882,242.882,0,0,1,883.428,533.781Z" transform="translate(-165 -128)"/>
</svg>
